<?xml version="1.0" encoding="utf-8"?>
<!-- Generator: Adobe Illustrator 27.2.0, SVG Export Plug-In . SVG Version: 6.00 Build 0)  -->
<svg version="1.1" id="Layer_1" xmlns="http://www.w3.org/2000/svg" xmlns:xlink="http://www.w3.org/1999/xlink" x="0px" y="0px"
	 viewBox="0 0 448 512" style="enable-background:new 0 0 448 512;" xml:space="preserve">
<style type="text/css">
	.st0{fill:#002D5C;}
</style>
<path class="st0" d="M170.5,51.6l-19,28.4h145l-19-28.4c-1.5-2.2-4-3.6-6.7-3.6h-93.7C174.4,48,171.9,49.3,170.5,51.6L170.5,51.6z
	 M317.5,25l36.7,55H368h48h8c13.3,0,24,10.7,24,24s-10.7,24-24,24h-8v304c0,44.2-35.8,80-80,80H112c-44.2,0-80-35.8-80-80V128h-8
	c-13.3,0-24-10.7-24-24s10.7-24,24-24h8h48h13.8l36.7-55.1C140.9,9.4,158.4,0,177.1,0h93.7c18.7,0,36.2,9.4,46.6,24.9L317.5,25z
	 M80,128v304c0,17.7,14.3,32,32,32h224c17.7,0,32-14.3,32-32V128H80z M160,192v208c0,8.8-7.2,16-16,16s-16-7.2-16-16V192
	c0-8.8,7.2-16,16-16S160,183.2,160,192z M240,192v208c0,8.8-7.2,16-16,16s-16-7.2-16-16V192c0-8.8,7.2-16,16-16S240,183.2,240,192z
	 M320,192v208c0,8.8-7.2,16-16,16s-16-7.2-16-16V192c0-8.8,7.2-16,16-16S320,183.2,320,192z"/>
</svg>
