<?xml version="1.0" encoding="utf-8"?>
<!-- Generator: Adobe Illustrator 27.2.0, SVG Export Plug-In . SVG Version: 6.00 Build 0)  -->
<svg version="1.1" id="Capa_1" xmlns="http://www.w3.org/2000/svg" xmlns:xlink="http://www.w3.org/1999/xlink" x="0px" y="0px"
	 viewBox="0 0 800 800" style="enable-background:new 0 0 800 800;" xml:space="preserve">
<style type="text/css">
	.st0{fill:#002D5C;}
</style>
<g>
	<path class="st0" d="M765.8,27l-1-0.9C746.5,9.3,722.6,0,697.7,0c-27.9,0-54.8,11.8-73.6,32.5l-356.2,390
		c-3.2,3.6-5.7,7.7-7.2,12.3l-41.9,125.6c-4.8,14.5-2.4,30.6,6.5,42.9c9,12.5,23.5,19.9,38.7,19.9h0c6.6,0,13.1-1.4,19.2-4
		l121.3-53.1c4.4-1.9,8.4-4.8,11.6-8.3l356.2-390C809.3,127.2,806.4,64,765.8,27z M299,537.1l24.6-73.7l2.1-2.3l46.6,42.5l-2.1,2.3
		L299,537.1z M721.4,121.4L418.6,452.9L372,410.4L674.9,78.8c5.9-6.5,14-10.1,22.8-10.1c7.7,0,15.1,2.9,20.8,8.1l1,0.9
		C732,89.2,732.9,108.8,721.4,121.4z"/>
	<path class="st0" d="M696.7,317.3c-19,0-34.4,15.4-34.4,34.4v292c0,48.2-39.2,87.5-87.5,87.5H158c-48.2,0-87.5-39.2-87.5-87.5
		V230.3c0-48.2,39.2-87.5,87.5-87.5h301.7c19,0,34.4-15.4,34.4-34.4S478.7,74,459.7,74H158C71.8,74,1.7,144.1,1.7,230.3v413.5
		C1.7,729.9,71.8,800,158,800h416.9c86.2,0,156.3-70.1,156.3-156.3v-292C731.1,332.7,715.7,317.3,696.7,317.3z"/>
</g>
</svg>
